# xmcd
#
# Track frame offsets: 
#        150
#        21403
#        42909
#        62479
#
# Disc length: 1122 seconds
#
# Revision: 0
# Processed by: cddbd v1.5.2PL0 Copyright (c) Steve Scherf et al.
# Submitted via: ExactAudioCopyFreeDBPlugin 1.0
#
DISCID=2d046004
DTITLE=Mayu Gene - Poison
DYEAR=2013
DGENRE=Pop
TTITLE0=シゲキ
TTITLE1=引き出し
TTITLE2=ドッペルベンガー (DEMO)
TTITLE3=シゲキ (Instrumental Version)
EXTD=
EXTT0=
EXTT1=
EXTT2=
EXTT3=
PLAYORDER=
